<?xml version="1.0" encoding="utf-8"?>
<!-- Generator: Adobe Illustrator 19.2.1, SVG Export Plug-In . SVG Version: 6.00 Build 0)  -->
<svg version="1.1" id="Layer_1" xmlns="http://www.w3.org/2000/svg" xmlns:xlink="http://www.w3.org/1999/xlink" x="0px" y="0px"
	 viewBox="0 0 349.3 143" style="enable-background:new 0 0 349.3 143;" xml:space="preserve">
<style type="text/css">
	.st0{fill:#AF4444;}
	.st1{fill:none;}
</style>
<title>6pm</title>
<path class="st0" d="M281.4,106.1c-6.3,0.8-13.1-1.1-15.4-7.1c-1.3-3.2-1.5-7-0.5-10.4c2.3-8.1,4.9-16.4,7.1-24.5
	c1.3-4.5,2.6-9.1,3.7-13.6c0.2-1.1,0.3-2.1,0.2-3.2c0-0.8-0.5-1.5-1.3-1.5c-0.2,0-0.5,0-0.6,0.2c-1.3,0.5-2.4,1.1-3.6,2.1
	c-3.2,3.6-6,7.5-8.3,11.7c-4.2,7.3-8.4,14.6-12.8,21.7c-1.6,2.4-3.6,4.7-5.7,6.7c-1,0.8-2.1,1.5-3.4,1.8c-1.9,0.8-4.2-0.3-5-2.3
	c0-0.2-0.2-0.5-0.2-0.6c-0.5-2.1-0.6-4.2-0.3-6.3c0.6-6.3,2.8-12.2,4.4-18.2c0.5-1.9,1-3.9,1.3-6c0.2-1-0.2-1.9-0.8-2.6
	c-1-0.3-1.9-0.2-2.8,0.3c-1.9,1.6-3.7,3.2-5.4,5.2c-4.5,6.5-8.6,13.5-12.2,20.6c-2.4,4.7-4.9,9.4-7.3,14.1c-0.2,0.5-0.5,0.8-0.6,1.1
	c-1,1.3-1.3,3.4-3.1,3.6c-3.1,0.5-6-0.6-8.1-2.9c-1.8-2.1-2.3-5-1.5-7.8c1.3-4.9,3.1-9.6,4.7-14.3c1.9-5.4,4.4-10.5,5.4-16.2
	c0.3-1.8,0.5-3.7,0.3-5.5c0-2.9-1.9-5.5-4.9-6.3c-2.9-0.8-6-0.8-8.9,0c0.5,1.9,1,3.9,1.1,5.7c0.6,5.4-0.3,10.7-2.6,15.6
	c-5,11.8-13.5,21.7-24.3,28.4c-3.2,2.3-7,3.4-10.9,3.4c-4.9,0.2-9.1-3.6-9.4-8.6c-0.6-4.9,0.3-9.9,2.6-14.4
	c4.2-8.9,10.5-16.5,18.3-22.7c2.6-2.1,5.5-4.1,8.1-6l1-0.6c-1.6-1.1-3.6-1.6-5.5-1.1c-3.4,0.8-6.5,2.3-9.1,4.7
	c-6.8,5.5-11.8,12.5-16.7,19.8c-6.7,10.4-11,21.9-14.9,33.6c-3.4,10.4-7,20.8-10.5,31.1c-0.8,2.3-1.9,4.4-2.9,6.5
	c-0.5,1-1.6,1.6-2.8,1.3c-0.8-0.2-1.6-0.2-2.3-0.3c-5.4-1.3-7.8-5.4-6.2-10.7s3.6-10.7,5.5-16.1c5.2-13.9,10.5-27.7,15.7-41.7
	c2.6-7.1,4.7-14.4,6.2-21.7c0.8-3.6,1-7.3,0.3-10.9c-0.2-0.8-0.5-1.8-0.8-2.6c4.7-1.1,9.7,1.1,11.8,5.5c1.8,3.9,2.4,8.4,1.6,12.7
	l-0.2,1.3l0.3,0.2l1.1-1.5c4.1-5.2,8.9-9.7,14.4-13.3c5.4-3.4,11.7-5.2,18.2-5c2.8,0,5.5,0.8,7.9,2.3c0.5,0.2,1.1,0.2,1.8,0
	c4.4-1.6,9.1-2.4,13.9-2.3c6,0.2,10.9,2.3,13.6,7.9c1.3,2.9,2.1,6,2.1,9.2c0.2,2.6,0,5.2,0,7.9l1.1-1.8c2.6-4.5,6.2-8.6,10.2-12
	c2.9-2.3,6.5-3.6,10.2-3.7c2.9-0.2,5.7,1.5,6.8,4.2c1.6,3.7,2.3,7.9,1.9,12c0,0.8,0,1.6,0.2,2.3l2.1-3.7c2.8-5.5,6.3-10.7,10.4-15.2
	c2.9-3.6,7-5.8,11.5-7c7.1-1.3,12.3,2.9,12.5,10.2c-0.2,4.4-1,8.8-2.4,12.8c-2.3,7-4.5,13.9-6.7,20.9c-1.3,4.2-2.1,8.6-2.1,13
	C278,99.5,279.2,103.2,281.4,106.1z M183,51.6c-0.5,0.2-0.6,0.3-0.8,0.5c-9.2,5.8-16.9,13.9-22.4,23.4c-2.1,3.4-3.4,7.1-3.7,11
	c-0.3,1.6,0.3,3.2,1.5,4.1c1.5,0.8,3.2,0.8,4.5-0.2c1.8-1.1,3.6-2.6,5.2-4.1c6.8-7,11.8-15.7,14.4-25.1
	C182.5,58.1,183,54.9,183,51.6L183,51.6z"/>
<path class="st0" d="M136.6,8.5c-7.1,0.3-13.9,2.3-20.1,5.7c-10.2,5.5-19.1,13.5-25.8,23c-2.9,3.9-5.2,8.3-7.8,12.5
	c-0.3,0.5-0.5,1.1-0.8,1.6l0.3,0.3c0.3-0.3,0.6-0.8,1-1.1c5.4-5.8,12.3-9.9,20.1-11.5c3.1-0.6,6.3-0.6,9.4,0
	c5.8,1.5,9.1,5.5,10.2,11.2c1,5.8,0.3,11.8-2.3,17.2c-5.2,13-15.1,23.5-27.6,29.7c-4.9,2.4-10.5,2.9-15.7,1.3
	c-7.8-2.3-12-7.8-13.9-15.2c-1.6-7.3-1.5-14.8,0.6-21.9c3.9-15.7,12-30.2,23.5-41.7c6-6.3,13.3-11.5,21.4-14.9
	c4.9-2.1,10.2-3.1,15.6-3.1c4.1,0,7.9,1.8,10.5,5C135.6,7,135.9,7.7,136.6,8.5z M75.8,81.3c0,2.6,0.6,5.2,1.9,7.6
	c1.3,2.3,3.9,3.4,6.5,2.8c2.9-0.6,5.7-2.1,7.9-4.2c6.7-5.8,11.7-13.3,14.6-21.6c1.9-4.4,2.8-9.2,2.3-14.1c-0.5-4.9-3.4-7.1-8.1-6.2
	c-1.8,0.3-3.6,1-5.2,1.9c-5.2,3.1-9.6,7.5-12.8,12.7C78.7,66.6,76.1,73.9,75.8,81.3L75.8,81.3z"/>
<rect class="st1" width="349.3" height="143"/>
</svg>
