<svg id="Layer_1" data-name="Layer 1" xmlns="http://www.w3.org/2000/svg" viewBox="0 0 349.3 143"><defs><style>.cls-1{fill:none;}.cls-2{fill:#e43225;}.cls-3{fill:#f7971d;}</style></defs><title>Aliexpress</title><rect class="cls-1" width="349.3" height="143"/><path class="cls-2" d="M104.719,89.458V46.305h25.468V51.74H110V65h18.114v5.435H110V84.024h21.672v5.435H104.719Z"/><path class="cls-2" d="M158.5,89.458l-8.8-11.516-8.734,11.516h-6.211l11.969-15.4L134.109,58.21h6.922l8.67,11.9,8.734-11.9h6.857L153.324,74.06l11.387,15.4H158.5Z"/><path class="cls-2" d="M173.25,84.735V106.01H167.9V74.177c0-8.087,6.227-16.744,15.892-16.744,9.743,0,17.145,6.211,17.145,16.369,0,9.969-7.442,16.762-15.933,16.762C180.737,90.564,175.235,88.785,173.25,84.735ZM195.317,73.8c0-6.923-4.448-11.11-12.453-10.733-3.813.18-9.785,2.965-9.219,12.913a10.685,10.685,0,0,0,10.777,9.325C190.7,85.308,195.317,81.669,195.317,73.8Z"/><path class="cls-2" d="M205.4,89.458V58.21h5.227v3.323c2.561-2.911,6.54-4.035,10.809-4.035v5.693c-0.582-.065-6.914-0.849-10.809,7.318V89.458H205.4Z"/><path class="cls-2" d="M223,73.8c0-9.058,6.47-16.369,15.4-16.369,11.076,0,15.228,7.375,15.228,16.757v2.523h-24.8c0.388,5.888,5.664,9,10.546,8.864a11.355,11.355,0,0,0,8.6-3.8l3.429,3.606a17.484,17.484,0,0,1-12.422,5.182C229.661,90.564,223,83.571,223,73.8Zm14.938-11.11c-5.086,0-8.921,4.381-9.18,9.1H247.97C247.906,67.2,244.6,62.692,237.934,62.692Z"/><path class="cls-2" d="M256.17,85.065l3.882-3.437a25.517,25.517,0,0,0,2.169,2.246,7.716,7.716,0,0,0,2.962,1.55c3.368,0.889,9.448.6,9.87-3.96,0.241-2.6-1.719-4.023-3.9-4.836-2.871-1.072-5.957-1.464-8.774-2.7-3.193-1.4-5.241-3.909-5.241-7.5,0-9.4,13.348-10.964,19.412-6.567a29.607,29.607,0,0,1,3.149,3.008L275.78,65.9c-1.876-2.264-3.8-3.454-7.873-3.518-2.018-.031-4.881.848-5.468,3.081-0.815,3.1,2.731,4.271,5.024,4.865,3.093,0.8,6.424,1.246,9.181,2.974,3.684,2.308,4.648,7.308,3.2,11.2-1.57,4.214-6.129,5.868-10.3,6.061a16.332,16.332,0,0,1-12.658-4.783C256.822,85.724,256.17,85.065,256.17,85.065Z"/><path class="cls-2" d="M283.373,85.065l3.882-3.437a25.517,25.517,0,0,0,2.169,2.246,7.715,7.715,0,0,0,2.962,1.55c3.368,0.889,9.448.6,9.87-3.96,0.241-2.6-1.719-4.023-3.9-4.836-2.871-1.072-5.957-1.464-8.774-2.7-3.193-1.4-5.241-3.909-5.241-7.5,0-9.4,13.348-10.964,19.412-6.567a29.607,29.607,0,0,1,3.149,3.008L302.983,65.9c-1.876-2.264-3.8-3.454-7.873-3.518-2.018-.031-4.881.848-5.468,3.081-0.815,3.1,2.731,4.271,5.024,4.865,3.093,0.8,6.424,1.246,9.181,2.974,3.684,2.308,4.648,7.308,3.2,11.2-1.57,4.214-6.129,5.868-10.3,6.061a16.332,16.332,0,0,1-12.658-4.783C284.024,85.724,283.373,85.065,283.373,85.065Z"/><path class="cls-2" d="M308.583,58.15V54.8h-1.2V54.191h3.092V54.8h-1.2V58.15h-0.694Z"/><path class="cls-2" d="M314.307,58.15V55.093L313.1,58.15h-0.3l-1.217-3.057V58.15h-0.694V54.191h0.979l1.08,2.718,1.074-2.718H315V58.15h-0.694Z"/><path class="cls-3" d="M68.966,89.458L65.148,79.171H44.316L40.5,89.458H35L51.756,46.305h6.017L74.465,89.458h-5.5ZM54.409,52.452L46.58,73.8H62.949Z"/><path class="cls-3" d="M77.686,89.458V46.305h5.361V89.458H77.686Z"/><path class="cls-3" d="M91.19,89.458V58.864h5.361V89.458H91.19Z"/><path id="_Path_" data-name="&lt;Path&gt;" class="cls-3" d="M101.8,48.9c0-.092.014-0.182,0.014-0.274s-0.011-.182-0.014-0.274a7.934,7.934,0,0,1-7.6-7.655c-0.11,0-.218-0.017-0.329-0.017s-0.219.012-.329,0.017a7.934,7.934,0,0,1-7.6,7.655c0,0.092-.014.182-0.014,0.274s0.011,0.182.014,0.274a7.934,7.934,0,0,1,7.6,7.655c0.11,0,.218.017,0.329,0.017s0.219-.012.329-0.017A7.934,7.934,0,0,1,101.8,48.9Z"/></svg>