<?xml version="1.0" encoding="utf-8"?>
<!-- Generator: Adobe Illustrator 19.2.1, SVG Export Plug-In . SVG Version: 6.00 Build 0)  -->
<svg version="1.1" id="Layer_1" xmlns="http://www.w3.org/2000/svg" xmlns:xlink="http://www.w3.org/1999/xlink" x="0px" y="0px"
	 viewBox="0 0 349.3 143" style="enable-background:new 0 0 349.3 143;" xml:space="preserve">
<style type="text/css">
	.st0{fill:none;}
	.st1{fill:#FF9900;}
	.st2{fill:#221F1F;}
</style>
<title>Amazon-Logo</title>
<rect class="st0" width="349.3" height="143"/>
<path id="path8" class="st1" d="M216.2,113c-20,14.8-48.8,22.6-73.7,22.6c-33.3,0.2-65.4-12.1-90.1-34.4c-1.9-1.8-0.2-4.1,1.9-2.7
	c27.4,15.8,58.6,23.9,90.3,23.9c23.7-0.2,47.1-4.9,68.9-14C216.6,106.9,219.5,110.6,216.2,113"/>
<path id="path10" class="st1" d="M224.4,103.6c-2.5-3.3-16.9-1.6-23.3-0.8c-1.9,0.2-2.3-1.6-0.6-2.7c11.5-8,30.2-5.6,32.3-3.1
	c2.1,2.5-0.6,21.4-11.3,30.4c-1.6,1.4-3.3,0.6-2.5-1.2C221.5,120.4,226.9,106.9,224.4,103.6"/>
<path id="path12" class="st2" d="M201.6,43.3v-7.8c0-1.2,0.8-1.9,1.9-1.9h35c1.2,0,1.9,0.8,1.9,1.9c0,0,0,0,0,0.2v6.6
	c0,1.2-1,2.5-2.5,4.9l-18.1,25.7c6.8-0.4,13.8,1.2,19.8,4.3c1.2,0.6,1.9,1.8,1.9,3.1v8.4c0,1.2-1,1.9-1.9,1.9c-0.2,0-0.4,0-0.6-0.2
	c-11.7-6-25.3-6-37,0c-1,0.4-2.1-0.2-2.3-1.4c0-0.2,0-0.4,0-0.4v-8c-0.2-1.9,0.4-3.7,1.4-5.4l21-30h-18.7
	C202.6,45.3,201.8,44.5,201.6,43.3C201.6,43.5,201.6,43.5,201.6,43.3"/>
<path id="path14" class="st2" d="M74.2,92.2H63.5c-1,0-1.9-0.8-1.9-1.8V35.9c0-1.2,0.8-1.9,1.9-1.9h9.9c1,0,1.9,0.8,1.9,1.8v7.2h0.4
	c2.5-6.8,7.4-10.1,14-10.1c6.6,0,10.9,3.1,13.8,10.1c3.1-8.2,12.3-12.1,20.2-9c2.5,1,4.9,2.7,6.6,4.9c3.3,4.5,2.7,11.3,2.7,17.1
	v34.4c0,1.2-0.8,1.9-1.9,1.9h-10.7c-1.2,0-1.9-0.8-1.9-1.9V61.2c0.2-3.5,0-6.8-0.4-10.3c-0.8-3.7-3.1-4.7-6.2-4.7
	c-2.9,0-5.3,1.8-6.4,4.5c-1,3.5-1.2,7-1,10.5v29c0,1.2-0.8,1.9-1.9,1.9H91.9c-1.2,0-1.9-0.8-1.9-1.9v-29c0-6,1-15-6.6-15
	c-7.6,0-7.4,8.8-7.4,15v29c0,1.2-0.8,1.9-1.9,1.9l0,0"/>
<path id="path16" class="st2" d="M270.7,32.6c15.8,0,24.3,13.6,24.3,30.7c0,16.7-9.3,29.8-24.3,29.8c-15.6,0-23.9-13.6-23.9-30.4
	S255.3,32.6,270.7,32.6 M270.7,43.7c-7.8,0-8.4,10.7-8.4,17.3s0,20.8,8.2,20.8c8.2,0,8.6-11.5,8.6-18.5c0.2-4.9-0.4-9.7-1.6-14.4
	C276.9,45.8,274,43.5,270.7,43.7"/>
<path id="path18" class="st2" d="M315.5,92.2h-10.7c-1.2,0-1.9-0.8-1.9-1.9V35.7c0-1,1-1.8,1.9-1.8h9.9c1,0,1.8,0.6,1.9,1.6v8.4h0.2
	c2.9-7.4,7.2-11.1,14.4-11.1c5.1-0.2,9.7,2.1,12.5,6.4c2.7,4.5,2.7,11.7,2.7,16.9v34.2c-0.2,1-1,1.8-1.9,1.8h-10.5
	c-1,0-1.8-0.8-1.9-1.8V60.6c0-6,0.6-14.8-6.6-14.8c-2.7,0.2-5.1,1.8-6.2,4.5c-1.4,3.3-1.9,6.8-1.8,10.3V90
	C317.4,91.2,316.6,92.2,315.5,92.2L315.5,92.2"/>
<path class="st2" d="M192.7,82c-1.9-2.7-3.9-4.9-3.9-9.9V55.6c0-7,0.6-13.4-4.7-18.3c-4.1-3.9-10.9-5.3-16-5.3
	c-10.1,0-21.4,3.7-23.7,16.3c-0.2,1,0.4,1.9,1.6,2.1h0.2l10.3,1.2c1-0.2,1.8-1,1.9-1.9c0.8-3.9,4.5-6.6,8.6-6.4c2.3-0.2,4.5,1,6,2.7
	c1.6,2.1,1.4,5.3,1.4,7.8v1.4c-6.2,0.8-14.2,1.2-20,3.7c-7,2.7-11.7,9.7-11.3,17.3c0,11.1,7,16.5,16,16.5c7.6,0,11.7-1.8,17.5-7.8
	c1.6,2.7,3.7,5.1,6,7c0.8,0.4,1.8,0.4,2.5-0.2l0,0c2.1-1.9,6-5.3,8.2-7C193.5,84,193.5,82.8,192.7,82L192.7,82z M171.9,77.4
	c-1.4,2.9-4.3,4.7-7.4,4.9c-4.1,0-6.4-3.1-6.4-7.8c0-9.1,8.2-10.7,15.8-10.7v2.1C173.8,70.2,173.8,73.7,171.9,77.4L171.9,77.4z"/>
<path class="st2" d="M53.4,82c-1.9-2.7-3.9-4.9-3.9-9.9V55.6c0-7,0.6-13.4-4.7-18.3c-4.1-3.9-10.9-5.3-16-5.3
	C18.7,32,7.4,35.7,5.1,48.4c-0.2,1,0.4,1.9,1.6,2.1l0,0L17,51.7c1-0.2,1.8-1,1.8-1.9c0.8-3.9,4.5-6.6,8.6-6.4c2.3-0.2,4.5,1,6,2.7
	c1.6,2.1,1.4,5.3,1.4,7.8v1.4c-6.2,0.8-14.2,1.2-20,3.7C7.6,61.8,3,68.6,3.4,76.2c0,11.1,7,16.5,16,16.5c7.6,0,11.7-1.8,17.5-7.8
	c1.6,2.7,3.7,5.1,6,7c0.8,0.4,1.8,0.4,2.5-0.2l0,0c2.1-1.9,6-5.3,8.2-7C54.1,84.2,54.1,83,53.4,82L53.4,82z M32.3,77.4
	C31,80.3,28.1,82,25,82.2c-4.1,0-6.4-3.1-6.4-7.8c0-9.1,8.2-10.7,15.8-10.7v2.1l0,0C34.5,70.2,34.5,73.7,32.3,77.4z"/>
</svg>
