<?xml version="1.0" encoding="utf-8"?>
<!-- Generator: Adobe Illustrator 19.2.1, SVG Export Plug-In . SVG Version: 6.00 Build 0)  -->
<svg version="1.1" id="Layer_1" xmlns="http://www.w3.org/2000/svg" xmlns:xlink="http://www.w3.org/1999/xlink" x="0px" y="0px"
	 viewBox="0 0 349.3 143" style="enable-background:new 0 0 349.3 143;" xml:space="preserve">
<style type="text/css">
	.st0{fill:none;}
</style>
<title>Bluefly-logo</title>
<path d="M93.5,64c0.1-2.5-0.9-5-2.6-6.7c-2-1.8-4.7-2.8-7.4-2.9H68.1v35.7h15.4c2.7,0,5.4-1.1,7.4-2.9c1.8-1.8,2.7-4.2,2.6-6.7
	c0.1-3.3-1.4-6.4-4.1-8.3C92.1,70.4,93.6,67.3,93.5,64z M83.4,58.7c0.9,0,5.6,0.3,5.6,5.3c0.1,2.9-1.9,5.4-4.7,6c-0.3,0-0.6,0-0.9,0
	h-11V58.7L83.4,58.7L83.4,58.7z M83.4,85.8H72.5V74.4h11.3c0.2,0,0.5,0,0.7,0.1c2.8,0.7,4.7,3.2,4.5,6.1
	C89.1,85.5,84.4,85.8,83.4,85.8L83.4,85.8L83.4,85.8z"/>
<rect x="105.9" y="54.4" width="4.5" height="35.7"/>
<rect x="224.4" y="54.4" width="4.5" height="35.7"/>
<polygon points="253.5,81.9 244.6,64.6 239.8,64.6 251.2,86.8 244.7,100.5 249.4,100.5 266.4,64.6 261.7,64.6 "/>
<path d="M142.7,79.2c0,0.2,0,0.3-0.1,0.5c-0.4,1.8-2.1,7-8.3,7c-5,0-5.6-4.3-5.6-6.1v-16h-4.5v16c0,5.1,3.1,10.2,10,10.2
	c4.4,0,6.9-1.9,8.4-4.2v3.5h4.5V64.7h-4.5L142.7,79.2L142.7,79.2L142.7,79.2z"/>
<path d="M199.9,64.3h-4.8v4.3h4.8v21.5h4.5V68.7h7.6v-4.3h-7.6c0.1-6.2,2.2-6.3,4-6.3c1.4,0,2.7,0.1,4.1,0.3v-4.2c0,0-3-0.3-4.5-0.3
	C200.1,53.9,199.9,61,199.9,64.3z"/>
<ellipse cx="280.9" cy="86.2" rx="4.2" ry="4.1"/>
<path d="M185.3,79.1V77c0-4.5-2.7-13.1-12.6-13.1c-10.4,0-13.2,8.6-13.2,13.1c0,0.7,0,1.3,0.1,2l0,0c0.4,4.7,3.4,11.4,12.5,11.9
	c5.4,0.3,9.3-1.9,11.4-4.5l-2.5-3.6c-1.4,2.1-5.2,4-8.6,3.8c-6-0.3-7.7-4.4-8.1-7.1v-0.3L185.3,79.1L185.3,79.1z M164.3,74.8
	c0.6-2.6,2.4-6.6,8.5-6.6c5.5,0,7.3,4,7.9,6.6H164.3L164.3,74.8z"/>
<rect class="st0" width="349.3" height="143"/>
</svg>
