<?xml version="1.0" encoding="utf-8"?>
<!-- Generator: Adobe Illustrator 19.2.1, SVG Export Plug-In . SVG Version: 6.00 Build 0)  -->
<svg version="1.1" id="Layer_1" xmlns="http://www.w3.org/2000/svg" xmlns:xlink="http://www.w3.org/1999/xlink" x="0px" y="0px"
	 viewBox="0 0 349.3 143" style="enable-background:new 0 0 349.3 143;" xml:space="preserve">
<style type="text/css">
	.st0{fill:#00A1CB;}
	.st1{fill:none;}
</style>
<title>carters</title>
<path class="st0" d="M47.5,97.3c-5.3,4.3-12,6.5-18.9,6.4C13.1,103.3,3,93.7,3,78.3C3,63.3,13.1,52,30.6,52c9.1,0,16.8,7.9,16.8,7.9
	l-8.6,8.2c-1.4-1-2.7-2.1-4.1-3.1c-4.5-2.9-10.5-2.6-14.6,0.9c-3.4,2.9-4.5,7.6-4.3,12c0,10.1,6,15.5,14.6,15.5
	c4.3,0,8.6-4.1,8.6-4.1L47.5,97.3z"/>
<path class="st0" d="M95.6,90.6c-0.2,3.9,0.2,7.9,0.9,11.8H84.7l-1-5.5h-0.3c-3.8,4.5-9.4,6.9-15.3,6.7c-10.3,0-16.1-7.2-16.1-14.8
	c0-12.4,11.5-18.9,30.6-18.7v-0.9c0-9.3-10.5-9.6-17-6.5c-1.9,1-3.8,2.2-5.5,3.4l-5.7-6.2c5.2-5.5,12.4-8.4,19.9-8.2
	c18.2,0.5,21.3,10.1,21.3,21L95.6,90.6L95.6,90.6z M82.9,80.2c-9.1-0.2-18-0.2-18,7.4c0,5,3.3,7.2,7.4,7.2c4.5,0.2,8.8-2.6,10.3-6.9
	c0.3-0.9,0.3-1.9,0.3-2.7V80.2L82.9,80.2z"/>
<path class="st0" d="M104.5,69c0-6.7-0.2-11.7-0.3-16H115l0.5,9.4h0.3c2.4-6.9,12-10.5,17.5-10.5c1,0,2.1,0.2,2.9,0.3V64
	c-1.2-0.2-2.4-0.3-3.8-0.3c-5.8,0-13.9,3.8-14.9,9.4c-0.2,1.2-0.3,2.4-0.3,3.8v25.8h-12.5L104.5,69L104.5,69L104.5,69z"/>
<path class="st0" d="M164.8,39.3V53h12.9v9.3h-12.9v22c0,10,3.6,9.1,8.2,9.1c1.7,0,3.3-0.2,5-0.5l0.2,9.4c-3.6,0.9-7.2,1.4-11,1.4
	c-3.9,0.2-7.9-1.2-10.8-4.1c-2.7-2.9-3.9-7.4-3.9-13.9V62.3h-10v-9.4h9.8V39.1L164.8,39.3z"/>
<path class="st0" d="M195.2,81.4c0.3,2.1,0.9,4.3,1.7,6.2c1,1.9,2.4,3.4,4.1,4.6c5.8,3.9,16.7,2.7,20.1-4.1l9.1,5.7
	c-5.5,7.6-12.5,9.8-20.3,9.8c-17.7,0-28-10-28-25.1c0-13.7,9.1-26.6,26.4-26.6s23.4,13.2,23.4,24c0,1.7-0.2,3.6-0.5,5.3
	C231.4,81.4,195.2,81.4,195.2,81.4z M218.9,72.6c0.2-4.6-2.2-12-11.2-12c-8.4,0-12,7-12.5,12H218.9z"/>
<path class="st0" d="M239,69c0-6.7-0.2-11.7-0.3-16h10.8l0.5,9.4h0.3c2.4-6.9,12-10.5,17.5-10.5c1,0,2.1,0.2,2.9,0.3V64
	c-1.2-0.2-2.6-0.3-3.8-0.3c-5.8,0-13.9,3.8-14.9,9.4c-0.2,1.2-0.3,2.4-0.3,3.8v25.8h-12.5L239,69L239,69L239,69z"/>
<path class="st0" d="M293.9,32.8l-8.4,23.9h-9.4l5.8-23.9H293.9L293.9,32.8z"/>
<path class="st0" d="M295.1,89.1c-0.7,0.7,5.3,4.3,5.8,4.6c3.9,1.7,12.7,1.5,12.7-4.6c0-3.4-2.2-5-9.1-7.2
	c-11-3.3-15.5-8.6-15.5-14.4c0-8.8,8.2-15.5,21.1-15.5c6.2,0.2,12,2.9,16,7.7l-7.6,6.9c0.5-0.3-4.6-3.3-5-3.4
	c-3.3-1.5-10.8-2.2-10.8,3.1c0,3.1,2.6,4.6,9.8,6.9c10.3,3.1,14.8,7.7,14.9,15.1c0,9.1-7.9,15.6-22.8,15.6c-6.5,0-12.7-2.6-17.2-7.2
	C287.4,96.3,294.9,89.1,295.1,89.1z"/>
<path class="st0" d="M339.9,68.8c-4.3,0-7.9-3.4-7.9-7.9c0-4.5,3.4-7.9,7.9-7.9c4.5,0,7.9,3.4,7.9,7.9
	C347.7,65.4,344.2,68.8,339.9,68.8L339.9,68.8z M339.9,54.6c-3.6,0-6.4,2.9-6.4,6.4c0,3.4,2.9,6.4,6.4,6.4c3.6,0,6.4-2.9,6.4-6.4
	l0,0C346.3,57.5,343.5,54.6,339.9,54.6L339.9,54.6L339.9,54.6z"/>
<path class="st0" d="M337,57c0.7-0.2,1.5-0.2,2.4-0.2c0.9-0.2,1.9,0.2,2.6,0.7c0.5,0.3,0.7,1,0.7,1.7c0,1-0.7,1.9-1.5,2.1l0,0
	c0.7,0.3,1,0.9,1.2,1.5c0.2,0.9,0.3,1.5,0.7,2.4h-1.5c-0.3-0.7-0.5-1.4-0.5-2.1c0-0.9-0.5-1.4-1.4-1.5h-0.2h-0.7V65h-1.5L337,57
	L337,57L337,57z M338.6,60.8h0.9c0.7,0.2,1.5-0.3,1.7-1c0-0.2,0-0.2,0-0.3c0-0.7-0.5-1.4-1.4-1.4c-0.2,0-0.2,0-0.3,0
	c-0.3,0-0.7,0-1,0.2L338.6,60.8L338.6,60.8L338.6,60.8z"/>
<rect class="st1" width="349.3" height="143"/>
</svg>
