<?xml version="1.0" encoding="utf-8"?>
<!-- Generator: Adobe Illustrator 19.2.1, SVG Export Plug-In . SVG Version: 6.00 Build 0)  -->
<svg version="1.1" id="Layer_1" xmlns="http://www.w3.org/2000/svg" xmlns:xlink="http://www.w3.org/1999/xlink" x="0px" y="0px"
	 viewBox="0 0 349.3 143" style="enable-background:new 0 0 349.3 143;" xml:space="preserve">
<style type="text/css">
	.st0{fill:#E53238;}
	.st1{fill:#0064D2;}
	.st2{fill:#F5AF02;}
	.st3{fill:#86B817;}
	.st4{fill:none;}
</style>
<title>EBay_logo</title>
<path id="e" class="st0" d="M46.1,33.3c-24.4,0-44.8,10.4-44.8,41.8c0,24.9,13.6,40.5,45.4,40.5c37.4,0,39.8-24.7,39.8-24.7H68.4
	c0,0-3.9,13.2-22.7,13.2c-15.4,0-26.4-10.4-26.4-24.9h69.2v-9.1C88.5,55.6,79.2,33.3,46.1,33.3L46.1,33.3L46.1,33.3z M45.4,45
	c14.7,0,24.7,8.9,24.7,22.5H19.5C19.5,53.2,32.5,45,45.4,45L45.4,45z"/>
<path id="b" class="st1" d="M88.3,3v96.7c0,5.4-0.4,13.2-0.4,13.2h17.3c0,0,0.6-5.6,0.6-10.6c0,0,8.4,13.4,31.8,13.4
	c24.4,0,41.1-16.9,41.1-41.3c0-22.5-15.1-40.9-40.9-40.9c-24,0-31.6,13-31.6,13V3H88.3L88.3,3z M133.1,45.6c16.7,0,27,12.3,27,28.8
	c0,17.7-12.1,29.4-27,29.4c-17.7,0-27.3-13.8-27.3-29.2C106,60.3,114.4,45.6,133.1,45.6L133.1,45.6z"/>
<path id="a" class="st2" d="M221.5,33.3c-36.8,0-39.2,20.1-39.2,23.4h18.4c0,0,0.9-11.7,19.5-11.7c12.1,0,21.4,5.6,21.4,16.2v3.9
	h-21.4c-28.6,0-43.5,8.4-43.5,25.3s14.1,25.7,32.9,25.7c25.7,0,34-14.3,34-14.3c0,5.6,0.4,11.2,0.4,11.2h16.2c0,0-0.6-6.9-0.6-11.2
	V63.6C259.4,38.7,239.3,33.3,221.5,33.3L221.5,33.3L221.5,33.3z M241.7,76.4v5c0,6.5-4.1,22.9-27.9,22.9c-13.2,0-18.6-6.5-18.6-14.1
	C194.9,76.4,214,76.1,241.7,76.4L241.7,76.4L241.7,76.4z"/>
<path id="y" class="st3" d="M249.4,36.6H270l29.6,59.3l29.4-59.3h18.6L294,141.9h-19.5l15.6-29.4L249.4,36.6z"/>
<rect class="st4" width="349.3" height="143"/>
</svg>
