<?xml version="1.0" encoding="utf-8"?>
<!-- Generator: Adobe Illustrator 19.2.1, SVG Export Plug-In . SVG Version: 6.00 Build 0)  -->
<svg version="1.1" id="Layer_1" xmlns="http://www.w3.org/2000/svg" xmlns:xlink="http://www.w3.org/1999/xlink" x="0px" y="0px"
	 viewBox="0 0 349.3 143" style="enable-background:new 0 0 349.3 143;" xml:space="preserve">
<style type="text/css">
	.st0{fill:none;}
</style>
<title>Forever21</title>
<rect x="-65.6" class="st0" width="488" height="143"/>
<polygon points="69.8,54.9 84.3,54.9 84.3,59.5 74.9,59.5 74.9,69.4 83.4,69.4 83.4,73.9 74.9,73.9 74.9,89.7 69.8,89.7 "/>
<path d="M107.4,72.4c0,7.3-0.5,13.1-4.8,13.1s-4.8-5.9-4.8-13.1s0.6-13.1,4.8-13.1S107.4,65.1,107.4,72.4z M102.6,54.5
	c-8.7,0-9.9,8-9.9,17.8s1.2,17.8,9.9,17.8s9.9-8,9.9-17.8S111.4,54.5,102.6,54.5L102.6,54.5z"/>
<path d="M139.1,64.2c0,2.9-0.7,5.5-2.9,7.1c-1.1,0.8-2.5,1.3-3.8,1.5l8.3,16.3l0.1,0.7h-5.4l-7.7-16.2v16.1h-5.1V55h7.5
	C138.4,54.9,139.1,61.2,139.1,64.2z M133.1,60.7c-0.6-0.6-1.4-1.1-2.3-1.2h-3.1V70h2.4c1.2,0.1,2.3-0.5,3-1.6
	c0.4-0.7,0.7-1.5,0.9-2.4v-3.4C133.8,61.9,133.6,61.2,133.1,60.7L133.1,60.7L133.1,60.7z"/>
<path d="M238.5,64.2c0,2.9-0.7,5.5-2.9,7.1c-1.1,0.8-2.5,1.3-3.8,1.5L240,89l0.1,0.7h-5.4l-7.7-16.2v16.1H222V55h7.5
	C237.7,54.9,238.5,61.2,238.5,64.2z M232.5,60.7c-0.6-0.6-1.4-1.1-2.3-1.2H227V70h2.4c1.2,0.1,2.3-0.5,3-1.6
	c0.4-0.7,0.7-1.5,0.9-2.4v-3.4C233.2,61.9,232.9,61.2,232.5,60.7L232.5,60.7L232.5,60.7z"/>
<polygon points="148.9,54.9 163.1,54.9 163.1,59.5 153.7,59.5 153.7,69.4 162.2,69.4 162.2,73.9 153.7,73.9 153.7,85.2 163.1,85.2 
	163.1,89.8 148.9,89.8 "/>
<polygon points="198.2,54.9 212.3,54.9 212.3,59.5 202.9,59.5 202.9,69.3 211.5,69.3 211.5,73.9 202.9,73.9 202.9,85.2 212.3,85.2 
	212.3,89.7 198.2,89.7 "/>
<polygon points="170.4,54.9 175.2,54.9 180,77.3 184.6,54.9 189.7,54.9 182,89.7 177.8,89.7 "/>
<polygon points="271.4,54.9 280.1,54.9 280.1,89.7 275.6,89.7 275.6,59.5 271.4,59.5 "/>
<path d="M257.5,65.9h-4.8v-4c0.1-1.8,0.6-3.6,1.6-5.1c1.5-2.1,4-3.4,6.6-3.3c3.8,0,7,2.7,7.9,6.4c0.2,0.9,0.2,1.8,0.2,2.7
	c0,1.2-0.1,2.4-0.3,3.5c-0.5,3-8.1,16.7-9.4,18.8h9v4.8h-16.5c0,0,11.5-21.6,12-24.6c0.1-0.9,0.2-1.8,0.1-2.8c0-0.6-0.1-1.2-0.3-1.8
	c-0.2-1.4-1.5-2.4-2.9-2.4c-2.2,0-3.2,2.3-3.3,4.5C257.5,63.1,257.5,65.9,257.5,65.9z"/>
<rect class="st0" width="349.3" height="143"/>
</svg>
