<?xml version="1.0" encoding="utf-8"?>
<!-- Generator: Adobe Illustrator 19.2.1, SVG Export Plug-In . SVG Version: 6.00 Build 0)  -->
<svg version="1.1" id="Layer_1" xmlns="http://www.w3.org/2000/svg" xmlns:xlink="http://www.w3.org/1999/xlink" x="0px" y="0px"
	 viewBox="0 0 349.5 143" style="enable-background:new 0 0 349.5 143;" xml:space="preserve">
<style type="text/css">
	.st0{fill:none;}
</style>
<title>Gap_logo</title>
<path d="M247.7,4.4h6.9c5.1-0.2,9.3,3.6,9.5,8.7c0,0.2,0,0.2,0,0.3v59.9c0,4.6-3.6,8.2-8,8.3c-0.3,0-0.5,0-0.8,0h-7.5V4.4z
	 M254.7,2.1h-27.3v2.3h7.2V139h-7.2v2.5h30.7V139h-10.5v-55h9c13.1,0,20.4-5.7,20.4-13.6V16.8C277.3,9,270.9,2.1,254.7,2.1"/>
<path d="M160.5,81.6l8-60l8.2,60H160.5L160.5,81.6L160.5,81.6z M176.9,84.1l7.4,54.8h-7.4v2.3h27.5v-2.5h-7.2L179,2.1h-11.6
	l-17,129.2c-1,4.6-1.5,7.5-9.5,7.5v2.3h20.6v-2.5c-5.9,0-8.5-3.1-7.9-6.4l6.4-48.4L176.9,84.1L176.9,84.1L176.9,84.1z"/>
<path d="M110.1,3.9c0,2.3-1.5,2.1-2.8,1.3c-4.4-2.8-9.5-4.3-14.7-4.4c-7.9,0-19.3,3.3-19.3,17.3v103.2c0.2,18,10.3,21.3,20.4,21.3
	c7.9,0,11.6-3.4,14.9-4.6c1.6-0.7,3.6,0.8,3.6,3.4h3.3V76h6.5v-2.3H94.3v2h8v56.4c0,4.6-3.8,8.2-8.3,8l0,0c-4.4,0-7.9-3.4-8-7.9
	v-0.2V13.9c0-3.3,0.7-10.6,6.7-10.6c11.4,0,17.5,28.1,17.5,42.5h3.3V2.1h-3.3V3.9L110.1,3.9L110.1,3.9z"/>
<rect class="st0" width="349.3" height="143"/>
</svg>
