<?xml version="1.0" encoding="utf-8"?>
<!-- Generator: Adobe Illustrator 19.2.1, SVG Export Plug-In . SVG Version: 6.00 Build 0)  -->
<svg version="1.1" id="Layer_1" xmlns="http://www.w3.org/2000/svg" xmlns:xlink="http://www.w3.org/1999/xlink" x="0px" y="0px"
	 viewBox="0 0 349.3 143" style="enable-background:new 0 0 349.3 143;" xml:space="preserve">
<style type="text/css">
	.st0{fill:none;}
	.st1{fill:#E8741F;}
</style>
<title>Ralph_Lauren</title>
<rect class="st0" width="349.3" height="143"/>
<ellipse class="st1" cx="19.7" cy="11.7" rx="10" ry="9"/>
<path class="st1" d="M5.2,34.2l6.1-9.5c0,0,8.6,6.7,11.3,9s7.3,6.1,7.2,12.4c-0.1,6.3-1.9,11.7-3.4,15.5C24.8,65.3,15.2,85,15.2,85
	L0.4,75.8c0,0,14.2-13.1,19.7-21.1c1.7-2.5,3.7-9.1-2-12.5C12.2,38.8,5.2,34.2,5.2,34.2z"/>
<g>
	<path class="st1" d="M24.2,28.5c0,0,8.1-5.2,16-27c2.3,0.8,13.8,3.9,13.8,3.9l-3.8,6.9c0,0,17.2-5.2,31.9-5.2c0,0,8.1-0.3,14.3,1.7
		c6.3,2,12.6,6.3,14.2,13.1c1.6,6.8,3.3,29.5,0.1,50.1c0,0-0.7,4.8-5.1,9c-4.4,4.2-9.8,6.3-19.2,6.3C77,87.2,72,85.4,72,85.4l1.9-8
		c0,0,5.8,2.2,10.3,2.2c4.5,0,8.4-1.9,10.5-4.3c0,0,1.8-2.7,1.9-5c0.1-2.3,0.2-45.9-0.2-47.4c-0.5-1.5-1-7-8.1-8.4
		c-7-1.4-12.6-0.5-14.3-0.1c-1.7,0.3-12.4,3-17.7,5.1c2,0.7,6,1.7,6,1.7s-1.8,3.7-5.1,7.4c4.5-0.1,34.8,0,34.8,0v6.8H72.6v9.1h19.2
		v6.8H72.6v14.4c0,0,3.2,0,7.8-3.6c-0.3-2.5-0.2-2.8-1.4-6.5c3-0.7,8.9-2.7,8.9-2.7l7.4,18.3l-11,4.3l-2-7.4c0,0-3.3,3.8-11.4,6.1
		c-11.2,3.3-18.4,3.2-20.3,3.1c0,0-5.5,0.2-8.8-1.3c-3.3-1.5-8.1-4.9-8.1-14.7c0-3.3,0.8-6,0.8-6l13.9,0.1c0,0-0.7,4.9-0.7,6.1
		s-1,6.6,9,6.5c0-7.2-0.1-16.9-0.1-16.9l-19.8-0.1v-6.8h19.7v-8.6h-5c0,0-5.5,5.1-8.5,8.2l-5.7-5c0,0,6.6-6.8,11-16.7
		c-2.6,1-7.2,3.1-7.2,3.1s-3.2,4.1-7.2,8.3C31.1,31.8,24.2,28.5,24.2,28.5z"/>
	<path class="st1" d="M128.1,38.3V10.5h15.6V14c0,0,22.3-3.1,24.7-3.1V3H186v6c0,0,11.3-1,18.6-1c7.4,0,16,1.2,19.3,2.4
		c3.3,1.1,7.3,4,7.3,9.9c0,5.9-4.4,12-13.3,18c-2.7-2.7-4.8-4.7-4.8-4.7l0.1,2.6h-27v9.2h31v7.3h-31v21.7h42.2v9H128v-9h40V52.9
		h-27.6v-7.5h27.7v-9.1h-24.2v2H128.1z M143.9,22.6l-0.1,6.5h63.8c0,0,6.9-4.2,6.9-8.3s-5.3-5.2-9-5.5c-3.6-0.2-13.9-0.3-22.3,0.7
		C174.8,17.1,155.5,19.3,143.9,22.6z"/>
	<ellipse class="st1" cx="206" cy="63.7" rx="9.9" ry="8.9"/>
	<path class="st1" d="M262.9,56.1v27.2h-17.5V7.5h17.4v6.6c0,0,16.9-6.5,28.4-8.9c11.5-2.4,18.1-2.4,20.8-2.4c2.7,0,14,1.2,20.3,3.6
		c6.4,2.4,10.9,7.2,12.7,12.3c1.8,5.1,1.9,19.1,1.9,25.6s-0.5,26.4-1.1,30.2c-0.7,3.9-2.3,8.3-5.7,10.8c-3.4,2.5-8.3,1.9-12.7,1
		c-4.4-0.9-9.7-2.8-14.1-5.2c0-2.8,0-7.5,0-7.5s4.3,3.1,8.6,3.1c4.3,0,7.7-2.6,7.7-8.4c0-5.8,0.6-30.7,0.1-40.9
		C327,32,321.1,40,318.5,43c3.5,2.5,7.7,6.4,10.2,9.3c-3.3,3-12.2,10.2-12.2,10.2s-5.2-8-6.5-9.4c-1.4,1.6-9.8,10.9-23,18.6
		c-2.3-3.3-5.5-7.4-5.5-7.4s9.9-3.4,21.9-19.4c-2.6-2.7-6.5-7.7-9.9-10c-1.4,1.9-5.3,6.1-5.3,6.1s3.6,2.7,6.3,7.5
		c-2.3,2.3-9.3,9.5-9.3,9.5l-5.7-8.8c0,0-6.3,6.6-12,10.8C264.7,57.4,262.9,56.1,262.9,56.1z M274.4,42.1c-4.1-6.1-9.9-10-9.9-10
		s3.1-3.4,4.7-6c3.3,2.3,6.8,4.8,10.6,7.5c3.3-5.6,7.6-15.3,7.6-15.3s10.7,5.3,12.7,6.4c-1,3.3-1.9,4.4-1.9,4.4s6.7,4.4,10.8,7
		c4.7-8.9,6.7-19.2,6.7-19.2l14,8.5c0,0,0-5.2-0.2-7.4c-0.2-7.6-8.5-8.5-13-8.4c-4.4,0.1-14.2,1.9-25.2,4.3
		c-11,2.4-28.4,10.1-28.4,10.1v29C268.9,49.2,271.3,46.3,274.4,42.1z"/>
</g>
<g>
	<path class="st1" d="M7.9,109c0,0,1.7-6.2,8.3-5.9c6.6,0.2,11.5,0.6,15.3,0.6s12.6-0.8,13.5-1.2c-0.4,1.8-2.5,5.4-5.6,5.4
		c-3.1,0-7,0-7,0s-1.6,0-1.6,2c0,2,0,24.4,0,24.4s0.4,3.3,3.7,2.5c-1,2.8-3.7,4.5-6.9,4.5c-3.1,0-6.2-2-6.2-4.7s0-25.7,0-27.1
		c0-1.4-0.2-1.7-2.7-1.8c-1.5-0.1-4.4-0.2-6.9,0.1C10.2,107.9,8.9,108.5,7.9,109z"/>
	<path class="st1" d="M43.1,115.5c0.3-1,0.8-2.8,3-4c2.4-1.4,6-1.4,7.3-1.4c1.3,0,5.4,0.2,6.6,0.6c1.2,0.3,8.4,1.4,8.4,9.3
		s0,14.7,0,14.7s0.3,3.1,3.4,2.1c-0.4,3-3.4,4.6-5.6,4.6c-2.1,0-5.6-1.3-5.6-3.9c0,0-1.4,4.4-8.9,4.4c-7.5,0-11.5-4.5-11.5-11.2
		s4.8-11.3,12-11.3c2.4,0,6.6,0.9,8.4,3.8c0-3.5-0.6-8.2-6-8.7C52,114.1,46.5,114.2,43.1,115.5z M55,123.6c-3.1,0-5.7,3-5.7,6.7
		c0,3.7,2.5,6.7,5.7,6.7c3.1,0,5.7-3,5.7-6.7C60.7,126.6,58.1,123.6,55,123.6z"/>
	<path class="st1" d="M151.3,115.5c0.3-1,0.8-2.8,3-4c2.4-1.4,6-1.4,7.3-1.4c1.3,0,5.4,0.2,6.6,0.6s8.4,1.4,8.4,9.3s0,14.7,0,14.7
		s0.3,3.1,3.4,2.1c-0.4,3-3.4,4.6-5.6,4.6s-5.6-1.3-5.6-3.9c0,0-1.4,4.4-8.9,4.4c-7.5,0-11.5-4.5-11.5-11.2s4.8-11.3,12-11.3
		c2.4,0,6.6,0.9,8.4,3.8c0-3.5-0.6-8.2-6-8.7C160.2,114.1,154.7,114.2,151.3,115.5z M163.2,123.6c-3.1,0-5.7,3-5.7,6.7
		c0,3.7,2.5,6.7,5.7,6.7c3.1,0,5.7-3,5.7-6.7C168.9,126.6,166.3,123.6,163.2,123.6z"/>
	<path class="st1" d="M106.2,125.9c0,8.9-7,16.1-15.5,16.1c-8.6,0-15.5-7.2-15.5-16.1c0-8.9,7-16.1,15.5-16.1
		C99.2,109.8,106.2,117,106.2,125.9z M90.7,114.7c-3.4,0-6.1,5-6.1,11.2c0,6.2,2.7,11.2,6.1,11.2c3.4,0,6.1-5,6.1-11.2
		C96.8,119.7,94,114.7,90.7,114.7z"/>
	<path class="st1" d="M214.1,125.9c0,8.9-7,16.1-15.5,16.1c-8.6,0-15.5-7.2-15.5-16.1c0-8.9,7-16.1,15.5-16.1
		C207.1,109.8,214.1,117,214.1,125.9z M198.5,114.7c-3.4,0-6.1,5-6.1,11.2c0,6.2,2.7,11.2,6.1,11.2c3.4,0,6.1-5,6.1-11.2
		C204.7,119.7,201.9,114.7,198.5,114.7z"/>
	<path class="st1" d="M294,125.9c0,8.9-7,16.1-15.5,16.1c-8.6,0-15.5-7.2-15.5-16.1c0-8.9,7-16.1,15.5-16.1
		C287,109.8,294,117,294,125.9z M278.4,114.7c-3.4,0-6.1,5-6.1,11.2c0,6.2,2.7,11.2,6.1,11.2c3.4,0,6.1-5,6.1-11.2
		C284.6,119.7,281.8,114.7,278.4,114.7z"/>
	<path class="st1" d="M108.8,103.8c0,0,0.6-4.6,5.9-4.6c5.3,0,6.3,3.4,6.3,4.2c0,0.9,0,10.3,0,10.3s2.2-3.4,9.1-3.4
		c6.8,0,13.1,4.8,13.1,14c0,0,1.4,17.1-13.5,17.1c-4.8,0-7.6-1.6-9.1-4c-0.9,2.4-3.1,3.8-5.7,3.8c-2.6,0-5.7-1.6-5.7-4.5
		c1.1,0.1,3.2,0.1,3.2-2.7c0-2.7,0-28.1,0-28.1S112.2,103.8,108.8,103.8z M121.3,119.6c-0.9,2.9-0.4,10.7,0,12.2
		c0.4,1.5,2,5.2,6.2,5.2c4.2,0,5.6-4.1,5.9-5.5c0.3-1.4,0.9-5-0.2-11.2c-1.1-6.2-5.8-5.7-5.8-5.7
		C123.9,114.7,122.2,116.7,121.3,119.6z"/>
	<ellipse class="st1" cx="222.4" cy="137.3" rx="4.3" ry="4.3"/>
	<path class="st1" d="M258.5,136.9c0,0-1.6-1.7-3-1.6c-1.4,0.1-2.2,0.6-3,0.9c-0.8,0.3-2.5,0.9-4.1,0.9s-4.4-0.6-6.5-3.9
		c-2.1-3.3-2.1-9.6-1.4-12.3c0.7-2.7,2.3-4.7,4.2-5.9c1.9-1.2,5.4-0.7,6.6,0.2c1.2,1,1.8,2.9,4.1,2.9c2.3,0,3.6-2.7,3.2-4.6
		c0,0-3.7-3-11.4-3.1c-7.2-0.1-11.3,3.9-12.6,5.4c-1.3,1.6-3.8,5.3-3.8,10.2c0,5,2.5,10,5.5,12.3c3,2.3,7.3,3.4,10.6,3.4
		C250.1,141.8,255,140.6,258.5,136.9z"/>
	<path class="st1" d="M296.9,115.1c0,0,0.7-4.7,6-4.7c4.4,0,5.6,3.3,5.6,3.3s2.7-3.6,8.4-3.6c5.7,0,8.3,2.7,9.4,4.2
		c1.9-1.8,3.8-4.1,9-4.1c5.2,0,9.6,1.8,10.1,7c0.5,5.2,0.3,18,0.3,18s0.4,2.5,3.2,1.4c0.2,2.8-2.7,4.6-5.6,4.6s-5.8-1.7-5.8-5.4
		c0-3.7,0-17.5,0-17.5s0.1-4-4.7-4c-4.8,0-5.3,4.4-5.3,5.8c0,1.4,0,20.9,0,20.9H319v-22.6c0,0-0.1-4.2-4.5-4.2
		c-4.4,0-5.6,3.7-5.6,5.5c0,1.8,0,21.1,0,21.1h-8.4v-23.2C300.5,117.7,300.7,115.2,296.9,115.1z"/>
</g>
</svg>
