<?xml version="1.0" encoding="utf-8"?>
<!-- Generator: Adobe Illustrator 19.2.1, SVG Export Plug-In . SVG Version: 6.00 Build 0)  -->
<svg version="1.1" id="Layer_1" xmlns="http://www.w3.org/2000/svg" xmlns:xlink="http://www.w3.org/1999/xlink" x="0px" y="0px"
	 viewBox="0 0 349.3 143" style="enable-background:new 0 0 349.3 143;" xml:space="preserve">
<style type="text/css">
	.st0{fill:none;}
</style>
<title>Ralph_Lauren</title>
<rect class="st0" width="349.3" height="143"/>
<g>
	<path d="M27.7,57.1c3.5-8.1,11.7-29.4,13-33.7c0.3-0.9,0.5-1.8,0.5-2.3c0-0.5-0.2-1.1-0.8-1.4c-0.7-0.2-1.6-0.2-2.3-0.2
		c-0.4,0-0.7-0.1-0.7-0.4c0-0.4,0.4-0.5,1.3-0.5c2.4,0,5.2,0.2,6,0.2c0.4,0,3-0.2,4.7-0.2c0.7,0,1,0.1,1,0.4c0,0.3-0.2,0.4-0.7,0.4
		c-0.4,0-1.8,0-2.9,0.7c-0.8,0.5-1.7,1.6-3.3,5.7c-0.7,1.7-3.7,9-6.8,16.5c-3.7,8.9-6.4,15.4-7.8,18.4c-1.7,3.6-1.9,4.6-2.6,4.6
		c-0.7,0-1-0.8-2.2-3.8L9.3,24.4C7.9,21,7,20.3,4.9,19.7c-0.9-0.2-1.9-0.2-2.3-0.2c-0.4,0-0.5-0.2-0.5-0.4c0-0.4,0.6-0.4,1.6-0.4
		c2.9,0,6.4,0.2,7.1,0.2c0.6,0,3.3-0.2,5.7-0.2c1.1,0,1.6,0.1,1.6,0.4c0,0.3-0.2,0.4-0.6,0.4c-0.7,0-1.8,0.1-2.3,0.3
		c-0.7,0.3-0.8,0.8-0.8,1.2c0,0.8,0.7,2.7,1.6,5L27.7,57.1z"/>
	<path d="M64.5,48.7c0,5.2,0,9.5,0.3,11.8c0.2,1.6,0.5,2.8,2.1,3c0.8,0.1,2,0.2,2.4,0.2c0.3,0,0.4,0.2,0.4,0.3
		c0,0.3-0.3,0.4-0.9,0.4c-3,0-6.4-0.2-6.7-0.2s-3.7,0.2-5.3,0.2c-0.6,0-0.9-0.1-0.9-0.4c0-0.2,0.1-0.3,0.4-0.3
		c0.5,0,1.1-0.1,1.6-0.2c1.1-0.2,1.4-1.4,1.6-3C60,58.3,60,54,60,48.7v-9.6c0-8.5,0-10-0.1-11.8c-0.1-1.8-0.7-2.8-1.9-3
		c-0.6-0.2-1.3-0.2-1.7-0.2c-0.2,0-0.4-0.1-0.4-0.3c0-0.3,0.3-0.4,0.9-0.4c1.8,0,5.2,0.2,5.5,0.2s3.7-0.2,5.3-0.2
		c0.6,0,0.9,0.1,0.9,0.4c0,0.2-0.2,0.3-0.4,0.3c-0.4,0-0.7,0.1-1.4,0.2c-1.5,0.3-1.9,1.2-2,3.1c-0.1,1.7-0.1,3.3-0.1,11.8V48.7z"/>
	<path d="M82.7,59.4c-5.3-4.7-6.6-10.9-6.6-16.1c0-3.6,1.3-10,6.1-14.9c3.3-3.3,8.2-5.8,16.6-5.8c2.2,0,5.2,0.2,7.9,0.7
		c2.1,0.4,3.8,0.7,5.6,0.8c0.6,0.1,0.7,0.3,0.7,0.6c0,0.4-0.2,1.1-0.3,3c-0.1,1.8-0.1,4.8-0.2,5.6c-0.1,0.8-0.2,1.1-0.5,1.1
		c-0.4,0-0.4-0.4-0.4-1.1c0-2.1-0.9-4.4-2.3-5.6c-1.9-1.6-6.1-3.1-10.9-3.1c-7.2,0-10.6,2.1-12.5,4c-4,3.8-4.9,8.7-4.9,14.2
		c0,10.4,8,19.9,19.7,19.9c4.1,0,7.3-0.5,9.5-2.7c1.1-1.2,1.9-3.6,2-4.6c0.1-0.6,0.2-0.8,0.5-0.8c0.3,0,0.4,0.4,0.4,0.8
		c0,0.4-0.7,5.1-1.2,7c-0.3,1-0.4,1.1-1.4,1.6c-2.2,0.9-6.3,1.3-9.8,1.3C92.5,65.3,87,63.3,82.7,59.4z"/>
	<path d="M138.8,48.7c0,5.2,0,9.5,0.3,11.8c0.2,1.6,0.5,2.8,2.1,3c0.8,0.1,2,0.2,2.5,0.2c0.3,0,0.4,0.2,0.4,0.3
		c0,0.3-0.3,0.4-0.9,0.4c-3,0-6.4-0.2-6.7-0.2c-0.3,0-3.7,0.2-5.3,0.2c-0.6,0-0.9-0.1-0.9-0.4c0-0.2,0.1-0.3,0.4-0.3
		c0.5,0,1.1-0.1,1.6-0.2c1.1-0.2,1.4-1.4,1.6-3c0.3-2.3,0.3-6.6,0.3-11.8v-23l-8.1,0.1c-3.4,0.1-4.7,0.4-5.6,1.7
		c-0.6,0.9-0.8,1.3-0.9,1.7c-0.2,0.4-0.3,0.5-0.5,0.5c-0.2,0-0.3-0.2-0.3-0.5c0-0.5,1.1-5.2,1.2-5.7c0.1-0.3,0.3-1,0.5-1
		c0.4,0,0.9,0.5,2.4,0.7c1.6,0.2,3.6,0.3,4.3,0.3h20.4c1.7,0,3-0.1,3.9-0.3c0.8-0.1,1.3-0.3,1.5-0.3c0.3,0,0.3,0.3,0.3,0.7
		c0,1.6-0.2,5.4-0.2,6c0,0.5-0.2,0.7-0.4,0.7c-0.3,0-0.4-0.2-0.4-0.9l-0.1-0.6c-0.2-1.6-1.5-2.9-6.7-3l-6.9-0.1V48.7z"/>
	<path d="M180.9,22.6c12.3,0,21.4,7.7,21.4,20.4c0,12.2-8.6,22.3-21.7,22.3c-14.9,0-21.1-11.6-21.1-21.4
		C159.4,35.1,165.9,22.6,180.9,22.6z M182,63.2c4.9,0,15-2.8,15-18.7c0-13.1-7.9-20.1-16.6-20.1c-9.1,0-15.9,6-15.9,17.9
		C164.6,55.1,172.2,63.2,182,63.2z"/>
	<path d="M213,39.2c0-8.5,0-10-0.1-11.8c-0.1-1.8-0.5-2.7-2.3-3.1c-0.4-0.1-1.4-0.2-1.9-0.2c-0.2,0-0.4-0.1-0.4-0.3
		c0-0.3,0.3-0.4,0.9-0.4c2.4,0,5.9,0.2,6.2,0.2c0.6,0,4.7-0.2,6.4-0.2c3.4,0,7.1,0.3,10,2.4c1.4,1,3.8,3.6,3.8,7.4
		c0,4-1.7,8.1-6.6,12.6c4.5,5.7,8.2,10.6,11.3,13.9c2.9,3.1,5.3,3.7,6.6,3.9c1,0.2,1.8,0.2,2.1,0.2c0.3,0,0.5,0.2,0.5,0.3
		c0,0.3-0.3,0.4-1.3,0.4h-3.9c-3,0-4.4-0.3-5.8-1c-2.3-1.3-4.2-3.9-7.4-8c-2.3-3-4.8-6.6-5.9-8.1c-0.2-0.2-0.4-0.3-0.7-0.3l-6.7-0.1
		c-0.3,0-0.4,0.2-0.4,0.4v1.3c0,5.2,0,9.5,0.3,11.8c0.2,1.6,0.5,2.8,2.1,3c0.8,0.1,2,0.2,2.5,0.2c0.3,0,0.4,0.2,0.4,0.3
		c0,0.3-0.3,0.4-0.9,0.4c-3,0-6.4-0.2-6.7-0.2c-0.1,0-3.5,0.2-5.1,0.2c-0.6,0-0.9-0.1-0.9-0.4c0-0.2,0.1-0.3,0.4-0.3
		c0.5,0,1.1-0.1,1.6-0.2c1.1-0.2,1.4-1.4,1.6-3c0.3-2.3,0.3-6.6,0.3-11.8V39.2z M217.4,43.9c0,0.3,0.1,0.5,0.4,0.7
		c0.8,0.5,3.3,0.9,5.7,0.9c1.3,0,2.8-0.2,4.1-1c1.9-1.3,3.3-4.2,3.3-8.4c0-6.8-3.6-10.9-9.4-10.9c-1.6,0-3.1,0.2-3.6,0.3
		c-0.3,0.1-0.4,0.3-0.4,0.7V43.9z"/>
	<path d="M261.1,48.7c0,5.2,0,9.5,0.3,11.8c0.2,1.6,0.5,2.8,2.1,3c0.8,0.1,2,0.2,2.5,0.2c0.3,0,0.4,0.2,0.4,0.3
		c0,0.3-0.3,0.4-0.9,0.4c-3,0-6.4-0.2-6.7-0.2c-0.3,0-3.7,0.2-5.3,0.2c-0.6,0-0.9-0.1-0.9-0.4c0-0.2,0.1-0.3,0.4-0.3
		c0.5,0,1.1-0.1,1.6-0.2c1.1-0.2,1.4-1.4,1.6-3c0.3-2.3,0.3-6.6,0.3-11.8v-9.6c0-8.5,0-10-0.1-11.8c-0.1-1.8-0.7-2.8-1.8-3
		c-0.6-0.2-1.3-0.2-1.7-0.2c-0.2,0-0.4-0.1-0.4-0.3c0-0.3,0.3-0.4,0.9-0.4c1.8,0,5.2,0.2,5.5,0.2c0.3,0,3.7-0.2,5.3-0.2
		c0.6,0,0.9,0.1,0.9,0.4c0,0.2-0.2,0.3-0.4,0.3c-0.4,0-0.7,0.1-1.4,0.2c-1.5,0.3-1.9,1.2-2,3.1c-0.1,1.7-0.1,3.3-0.1,11.8V48.7z"/>
	<path d="M291.8,24.7c0.7-1.8,0.9-2.1,1.2-2.1c0.3,0,0.5,0.3,1.2,2c0.8,2.1,9.4,24.6,12.7,32.8c2,4.8,3.5,5.7,4.7,6
		c0.8,0.3,1.6,0.3,2.2,0.3c0.3,0,0.5,0.1,0.5,0.3c0,0.3-0.5,0.4-1.1,0.4c-0.8,0-4.8,0-8.6-0.1c-1-0.1-1.6-0.1-1.6-0.4
		c0-0.2,0.2-0.3,0.4-0.4c0.3-0.1,0.7-0.6,0.3-1.5l-5.1-13.4c-0.1-0.2-0.2-0.3-0.5-0.3h-11.7c-0.3,0-0.4,0.2-0.5,0.4l-3.3,9.6
		c-0.5,1.4-0.8,2.7-0.8,3.6c0,1.1,1.1,1.6,2.1,1.6h0.5c0.4,0,0.5,0.1,0.5,0.3c0,0.3-0.3,0.4-0.8,0.4c-1.3,0-3.6-0.2-4.2-0.2
		c-0.6,0-3.6,0.2-6.2,0.2c-0.7,0-1-0.1-1-0.4c0-0.2,0.2-0.3,0.5-0.3c0.4,0,1.1-0.1,1.6-0.1c2.5-0.3,3.6-2.4,4.6-5.1L291.8,24.7z
		 M297.5,46.5c0.3,0,0.3-0.2,0.2-0.4l-5.2-14.7c-0.3-0.8-0.5-0.8-0.8,0l-4.8,14.7c-0.1,0.3,0,0.4,0.2,0.4H297.5z"/>
	<path d="M328.9,63.8c-0.8-0.4-0.8-0.6-0.8-2.1c0-2.7,0.2-4.9,0.3-5.8c0.1-0.6,0.2-0.9,0.4-0.9c0.3,0,0.4,0.2,0.4,0.6
		c0,0.5,0,1.3,0.2,2c0.8,4,4.4,5.6,8.1,5.6c5.2,0,7.8-3.8,7.8-7.2c0-3.8-1.6-5.9-6.3-9.8l-2.4-2c-5.8-4.7-7.1-8.1-7.1-11.8
		c0-5.8,4.4-9.8,11.3-9.8c2.1,0,3.7,0.2,5.1,0.5c1,0.2,1.5,0.3,1.9,0.3c0.4,0,0.5,0.1,0.5,0.4c0,0.3-0.2,2.1-0.2,5.8
		c0,0.9-0.1,1.3-0.4,1.3c-0.3,0-0.4-0.3-0.4-0.7c-0.1-0.7-0.4-2.1-0.7-2.7c-0.3-0.6-1.8-2.9-6.8-2.9c-3.8,0-6.7,2.3-6.7,6.3
		c0,3.1,1.4,5.1,6.6,9.1l1.5,1.2c6.4,5.1,8,8.4,8,12.8c0,2.2-0.9,6.4-4.6,9c-2.3,1.6-5.3,2.3-8.2,2.3
		C333.7,65.3,331.2,64.9,328.9,63.8z"/>
	<path d="M75.6,123.4c-0.9-0.4-0.9-0.7-0.9-2.3c0-3,0.2-5.5,0.3-6.4c0.1-0.7,0.2-1,0.5-1c0.4,0,0.4,0.2,0.4,0.7c0,0.5,0,1.4,0.2,2.2
		c0.9,4.5,4.9,6.2,9,6.2c5.8,0,8.7-4.2,8.7-8.1c0-4.2-1.8-6.6-7-10.9l-2.7-2.2c-6.4-5.3-7.9-9.1-7.9-13.2c0-6.5,4.9-10.9,12.6-10.9
		c2.4,0,4.1,0.2,5.7,0.6c1.2,0.2,1.6,0.3,2.1,0.3c0.5,0,0.6,0.1,0.6,0.4c0,0.3-0.2,2.3-0.2,6.4c0,1-0.1,1.4-0.4,1.4
		c-0.4,0-0.4-0.3-0.5-0.8c-0.1-0.7-0.4-2.4-0.8-3c-0.4-0.7-2-3.2-7.6-3.2c-4.2,0-7.5,2.6-7.5,7c0,3.5,1.6,5.7,7.4,10.2l1.7,1.3
		c7.2,5.7,8.9,9.4,8.9,14.3c0,2.5-1,7.1-5.2,10.1c-2.6,1.8-5.9,2.6-9.2,2.6C80.9,125,78.1,124.6,75.6,123.4z"/>
	<path d="M114.5,98.8c0-8.5,0-10-0.1-11.8c-0.1-1.9-0.5-2.7-2.3-3.1c-0.4-0.1-1.4-0.2-1.8-0.2c-0.2,0-0.4-0.1-0.4-0.3
		c0-0.3,0.3-0.4,0.9-0.4c1.3,0,2.7,0,3.9,0.1l2.2,0.1c0.4,0,11.2,0,12.5-0.1c1-0.1,1.9-0.2,2.3-0.3c0.3-0.1,0.5-0.3,0.8-0.3
		c0.2,0,0.2,0.2,0.2,0.5c0,0.4-0.3,1-0.4,2.6c-0.1,0.5-0.2,2.9-0.3,3.6c-0.1,0.3-0.2,0.6-0.4,0.6c-0.3,0-0.4-0.3-0.4-0.7
		c0-0.4-0.1-1.3-0.3-2c-0.4-0.9-0.9-1.5-3.9-1.9c-0.9-0.1-6.9-0.2-7.5-0.2c-0.2,0-0.3,0.2-0.3,0.5v15c0,0.4,0.1,0.5,0.3,0.5
		c0.7,0,7.4,0,8.7-0.1c1.3-0.1,2.1-0.2,2.6-0.8c0.4-0.4,0.6-0.7,0.8-0.7c0.2,0,0.3,0.1,0.3,0.4c0,0.3-0.3,1.3-0.4,3
		c-0.1,1.1-0.2,3.1-0.2,3.5c0,0.4,0,1-0.4,1c-0.3,0-0.4-0.2-0.4-0.5c0-0.5,0-1.1-0.2-1.8c-0.2-0.8-0.7-1.7-2.8-1.9
		c-1.5-0.2-6.9-0.3-7.8-0.3c-0.3,0-0.4,0.2-0.4,0.4v4.8c0,1.8-0.1,8.2,0,9.3c0.2,3.8,1,4.5,6.3,4.5c1.4,0,3.8,0,5.2-0.6
		c1.4-0.6,2.1-1.7,2.4-3.9c0.1-0.6,0.2-0.8,0.5-0.8c0.3,0,0.3,0.4,0.3,0.8c0,0.4-0.4,4.1-0.7,5.3c-0.4,1.4-0.8,1.4-2.9,1.4
		c-4.1,0-7.1-0.1-9.2-0.2c-2.1-0.1-3.4-0.2-4.2-0.2c-0.1,0-1,0-2.2,0.1c-1.1,0-2.3,0.1-3.2,0.1c-0.6,0-0.9-0.1-0.9-0.4
		c0-0.2,0.1-0.3,0.4-0.3c0.5,0,1.1-0.1,1.6-0.2c1.1-0.2,1.4-1.4,1.6-3c0.3-2.3,0.3-6.6,0.3-11.8V98.8z"/>
	<path d="M149.5,119c-5.3-4.7-6.6-10.9-6.6-16.1c0-3.6,1.3-10,6.1-14.9c3.3-3.3,8.2-5.8,16.6-5.8c2.2,0,5.2,0.2,7.9,0.7
		c2.1,0.4,3.8,0.7,5.6,0.8c0.6,0.1,0.7,0.3,0.7,0.6c0,0.4-0.2,1.1-0.3,3c-0.1,1.8-0.1,4.8-0.2,5.6c-0.1,0.8-0.2,1.1-0.5,1.1
		c-0.4,0-0.4-0.4-0.4-1.1c0-2.1-0.9-4.4-2.3-5.6c-1.9-1.6-6.1-3.1-10.9-3.1c-7.2,0-10.6,2.1-12.5,4c-4,3.8-4.9,8.7-4.9,14.2
		c0,10.4,8,19.9,19.7,19.9c4.1,0,7.3-0.5,9.5-2.7c1.1-1.2,1.9-3.6,2-4.6c0.1-0.6,0.2-0.8,0.5-0.8c0.3,0,0.4,0.4,0.4,0.8
		c0,0.4-0.7,5.1-1.2,7c-0.3,1-0.4,1.1-1.4,1.6c-2.2,0.9-6.3,1.3-9.8,1.3C159.3,124.9,153.8,122.9,149.5,119z"/>
	<path d="M191,98.8c0-8.5,0-10-0.1-11.8c-0.1-1.9-0.5-2.7-2.3-3.1c-0.4-0.1-1.4-0.2-1.9-0.2c-0.2,0-0.4-0.1-0.4-0.3
		c0-0.3,0.3-0.4,0.9-0.4c2.5,0,5.9,0.2,6.2,0.2c0.6,0,4.7-0.2,6.4-0.2c3.4,0,7.1,0.3,10,2.4c1.4,1,3.8,3.6,3.8,7.4
		c0,4-1.7,8.1-6.6,12.6c4.5,5.7,8.2,10.6,11.3,13.9c2.9,3.1,5.3,3.7,6.6,3.9c1,0.2,1.8,0.2,2.1,0.2c0.3,0,0.5,0.2,0.5,0.3
		c0,0.3-0.3,0.4-1.3,0.4h-3.9c-3,0-4.4-0.3-5.8-1c-2.3-1.3-4.2-3.9-7.4-8c-2.3-3-4.8-6.6-5.9-8.1c-0.2-0.2-0.4-0.3-0.7-0.3l-6.7-0.1
		c-0.3,0-0.4,0.2-0.4,0.4v1.3c0,5.2,0,9.5,0.3,11.8c0.2,1.6,0.5,2.8,2.1,3c0.8,0.1,2,0.2,2.5,0.2c0.3,0,0.4,0.2,0.4,0.3
		c0,0.3-0.3,0.4-0.9,0.4c-3,0-6.4-0.2-6.7-0.2c-0.1,0-3.5,0.2-5.1,0.2c-0.6,0-0.9-0.1-0.9-0.4c0-0.2,0.1-0.3,0.4-0.3
		c0.5,0,1.1-0.1,1.6-0.2c1.1-0.2,1.4-1.4,1.6-3c0.3-2.3,0.3-6.6,0.3-11.8V98.8z M195.4,103.5c0,0.3,0.1,0.5,0.4,0.7
		c0.8,0.5,3.3,0.9,5.7,0.9c1.3,0,2.8-0.2,4.1-1c1.9-1.3,3.3-4.2,3.3-8.4c0-6.8-3.6-10.9-9.4-10.9c-1.6,0-3.1,0.2-3.6,0.3
		c-0.3,0.1-0.4,0.3-0.4,0.7V103.5z"/>
	<path d="M234.5,98.8c0-8.5,0-10-0.1-11.8c-0.1-1.9-0.5-2.7-2.3-3.1c-0.4-0.1-1.4-0.2-1.8-0.2c-0.2,0-0.4-0.1-0.4-0.3
		c0-0.3,0.3-0.4,0.9-0.4c1.3,0,2.7,0,3.9,0.1l2.2,0.1c0.4,0,11.2,0,12.5-0.1c1-0.1,1.9-0.2,2.3-0.3c0.3-0.1,0.5-0.3,0.8-0.3
		c0.2,0,0.2,0.2,0.2,0.5c0,0.4-0.3,1-0.4,2.6c-0.1,0.5-0.2,2.9-0.3,3.6c-0.1,0.3-0.2,0.6-0.4,0.6c-0.3,0-0.4-0.3-0.4-0.7
		c0-0.4-0.1-1.3-0.3-2c-0.4-0.9-0.9-1.5-3.9-1.9c-0.9-0.1-6.9-0.2-7.5-0.2c-0.2,0-0.3,0.2-0.3,0.5v15c0,0.4,0.1,0.5,0.3,0.5
		c0.7,0,7.4,0,8.7-0.1c1.3-0.1,2.1-0.2,2.6-0.8c0.4-0.4,0.6-0.7,0.8-0.7c0.2,0,0.3,0.1,0.3,0.4c0,0.3-0.3,1.3-0.4,3
		c-0.1,1.1-0.2,3.1-0.2,3.5c0,0.4,0,1-0.4,1c-0.3,0-0.4-0.2-0.4-0.5c0-0.5,0-1.1-0.2-1.8c-0.2-0.8-0.7-1.7-2.8-1.9
		c-1.5-0.2-6.9-0.3-7.8-0.3c-0.3,0-0.4,0.2-0.4,0.4v4.8c0,1.8-0.1,8.2,0,9.3c0.2,3.8,1,4.5,6.3,4.5c1.4,0,3.8,0,5.2-0.6
		c1.4-0.6,2.1-1.7,2.4-3.9c0.1-0.6,0.2-0.8,0.5-0.8c0.3,0,0.3,0.4,0.3,0.8c0,0.4-0.4,4.1-0.7,5.3c-0.4,1.4-0.8,1.4-2.9,1.4
		c-4.1,0-7.1-0.1-9.2-0.2c-2.1-0.1-3.4-0.2-4.2-0.2c-0.1,0-1,0-2.2,0.1c-1.1,0-2.3,0.1-3.2,0.1c-0.6,0-0.9-0.1-0.9-0.4
		c0-0.2,0.1-0.3,0.4-0.3c0.5,0,1.1-0.1,1.6-0.2c1.1-0.2,1.4-1.4,1.6-3c0.3-2.3,0.3-6.6,0.3-11.8V98.8z"/>
	<path d="M280.7,108.4c0,5.2,0,9.5,0.3,11.8c0.2,1.6,0.5,2.8,2.1,3c0.8,0.1,2,0.2,2.4,0.2c0.3,0,0.4,0.2,0.4,0.3
		c0,0.3-0.3,0.4-0.9,0.4c-3,0-6.4-0.2-6.7-0.2c-0.3,0-3.7,0.2-5.3,0.2c-0.6,0-0.9-0.1-0.9-0.4c0-0.2,0.1-0.3,0.4-0.3
		c0.5,0,1.1-0.1,1.6-0.2c1.1-0.2,1.4-1.4,1.6-3c0.3-2.3,0.3-6.6,0.3-11.8v-23l-8.1,0.1c-3.4,0.1-4.7,0.4-5.6,1.7
		c-0.6,0.9-0.8,1.3-0.9,1.7c-0.2,0.4-0.3,0.5-0.5,0.5c-0.2,0-0.3-0.2-0.3-0.5c0-0.5,1.1-5.2,1.2-5.7c0.1-0.3,0.3-1,0.5-1
		c0.4,0,0.9,0.5,2.4,0.7c1.6,0.2,3.6,0.3,4.3,0.3h20.4c1.7,0,3-0.1,3.9-0.3c0.8-0.1,1.3-0.3,1.5-0.3c0.3,0,0.3,0.3,0.3,0.7
		c0,1.6-0.2,5.4-0.2,6c0,0.5-0.2,0.7-0.4,0.7c-0.3,0-0.4-0.2-0.4-0.9l-0.1-0.6c-0.2-1.6-1.5-2.9-6.7-3l-6.9-0.1V108.4z"/>
</g>
</svg>
